<svg width="21" height="24" viewBox="0 0 21 24" fill="none" xmlns="http://www.w3.org/2000/svg">
<path d="M3 10.5H3.60938C4.78125 13.1719 7.40625 15 10.5 15C13.5469 15 16.1719 13.1719 17.3438 10.5H18C18.375 10.5 18.75 10.1719 18.75 9.75V5.25C18.75 4.875 18.375 4.5 18 4.5H17.3438C16.1719 1.875 13.5469 0 10.5 0C7.40625 0 4.78125 1.875 3.60938 4.5H3C2.57812 4.5 2.25 4.875 2.25 5.25V9.75C2.25 10.1719 2.57812 10.5 3 10.5ZM4.875 6.375C4.875 5.34375 5.85938 4.5 7.125 4.5H13.875C15.0938 4.5 16.125 5.34375 16.125 6.375V7.5C16.125 9.98438 14.1094 12 11.625 12H9.375C6.89062 12 4.875 9.98438 4.875 7.5V6.375ZM8.25 9.75L8.8125 8.0625L10.5 7.5L8.8125 6.9375L8.25 5.25L7.6875 6.9375L6 7.5L7.6875 8.0625L8.25 9.75ZM15.3281 15.0938C13.9219 15.9844 12.2812 16.5 10.5 16.5C8.67188 16.5 7.03125 15.9844 5.625 15.0938C2.4375 15.4219 0 18.0469 0 21.3281V21.75C0 23.0156 0.984375 24 2.25 24H6V21C6 20.2031 6.65625 19.5 7.5 19.5H13.5C14.2969 19.5 15 20.2031 15 21V24H18.75C19.9688 24 21 23.0156 21 21.75V21.3281C21 18.0469 18.5156 15.4219 15.3281 15.0938ZM12.75 21C12.3281 21 12 21.375 12 21.75C12 22.1719 12.3281 22.5 12.75 22.5C13.125 22.5 13.5 22.1719 13.5 21.75C13.5 21.375 13.125 21 12.75 21ZM8.25 21C7.82812 21 7.5 21.375 7.5 21.75V24H9V21.75C9 21.375 8.625 21 8.25 21Z" fill="#D71362"/>
</svg>
