<svg width="21" height="24" fill="none" xmlns="http://www.w3.org/2000/svg"><path d="M0 21.75A2.22 2.22 0 002.25 24h16.5A2.25 2.25 0 0021 21.75V9H0v12.75zm15-9.188a.57.57 0 01.563-.562h1.874c.282 0 .563.281.563.563v1.874a.57.57 0 01-.563.563h-1.875a.542.542 0 01-.562-.563v-1.874zm0 6a.57.57 0 01.563-.562h1.874c.282 0 .563.281.563.563v1.875a.57.57 0 01-.563.562h-1.875a.542.542 0 01-.562-.563v-1.875zm-6-6A.57.57 0 019.563 12h1.874c.282 0 .563.281.563.563v1.874a.57.57 0 01-.563.563H9.563A.542.542 0 019 14.437v-1.874zm0 6A.57.57 0 019.563 18h1.874c.282 0 .563.281.563.563v1.875a.57.57 0 01-.563.562H9.563A.542.542 0 019 20.437v-1.875zm-6-6A.57.57 0 013.563 12h1.874c.282 0 .563.281.563.563v1.874a.57.57 0 01-.563.563H3.563A.542.542 0 013 14.437v-1.874zm0 6A.57.57 0 013.563 18h1.874c.282 0 .563.281.563.563v1.875a.57.57 0 01-.563.562H3.563A.542.542 0 013 20.437v-1.875zM18.75 3H16.5V.75c0-.375-.375-.75-.75-.75h-1.5c-.422 0-.75.375-.75.75V3h-6V.75C7.5.375 7.125 0 6.75 0h-1.5c-.422 0-.75.375-.75.75V3H2.25A2.25 2.25 0 000 5.25V7.5h21V5.25C21 4.031 19.969 3 18.75 3z" fill="#D71362"/></svg>