<svg width="27" height="25" fill="none" xmlns="http://www.w3.org/2000/svg"><path d="M13.5 0c-3.281 0-5.906 2.672-5.906 5.906 0 2.672 3.843 7.453 5.297 9.235a.82.82 0 001.171 0c1.454-1.782 5.344-6.563 5.344-9.235C19.406 2.672 16.734 0 13.5 0zm0 7.875c-1.125 0-1.969-.844-1.969-1.969A1.95 1.95 0 0113.5 3.938a1.98 1.98 0 011.969 1.968A1.95 1.95 0 0113.5 7.875zM.937 10.125A1.535 1.535 0 000 11.531V23.25c0 .563.516.938.984.703L7.5 21V10.078c-.422-.75-.797-1.453-1.031-2.156L.937 10.125zm12.563 6.75c-.703 0-1.313-.281-1.734-.797C10.828 15 9.844 13.781 9 12.468V21l9 3V12.469c-.89 1.312-1.875 2.531-2.813 3.61a2.156 2.156 0 01-1.687.796zm12.469-9.281L19.5 10.5V24l6.516-2.578c.562-.235.984-.797.984-1.406V8.296c0-.562-.563-.937-1.031-.702z" fill="#D71362"/></svg>