<svg width="25" height="24" fill="none" xmlns="http://www.w3.org/2000/svg"><path d="M12.5.375C6.078.375.875 5.578.875 12S6.078 23.625 12.5 23.625 24.125 18.422 24.125 12 18.922.375 12.5.375zM21.875 12c0 1.078-.188 2.11-.516 3.047h-.984a.753.753 0 01-.516-.235l-1.5-1.546c-.187-.188-.187-.563 0-.75l.61-.61v-.375c0-.14-.094-.281-.188-.375l-.422-.469a.533.533 0 00-.375-.14h-.75a.52.52 0 01-.515-.516c0-.14.047-.281.14-.375l.422-.469a.532.532 0 01.375-.14h1.5c.328 0 .563-.235.563-.516v-.469c0-.28-.235-.515-.563-.515H17.47a.74.74 0 00-.75.75v.187c0 .329-.235.61-.516.75l-1.5.47c-.14.046-.234.187-.234.374v.094a.403.403 0 01-.375.375h-.75a.37.37 0 01-.375-.375.37.37 0 00-.375-.375h-.14c-.142 0-.282.094-.376.187l-.422.891c-.14.234-.375.422-.656.422H9.969a.74.74 0 01-.75-.75V9.328c0-.187.047-.375.187-.515l.938-.938c.234-.234.375-.516.375-.797 0-.187.094-.328.234-.375l1.875-.61a.645.645 0 00.188-.14l1.265-1.266c.094-.093.188-.234.188-.375 0-.28-.281-.515-.563-.515h-.937l-.75.75v.375a.403.403 0 01-.375.375h-.75a.37.37 0 01-.375-.375v-.938c0-.14.047-.234.14-.328l1.36-.984c.094 0 .14-.047.234-.047 5.203 0 9.422 4.219 9.422 9.375zM6.969 7.031c0-.14.047-.281.14-.375l1.172-1.218a.532.532 0 01.375-.141c.328 0 .563.234.563.516v.75c0 .14-.094.28-.188.375l-.422.468a.532.532 0 01-.375.14h-.75a.52.52 0 01-.515-.515zm6 14.344v-.328c0-.422-.375-.75-.75-.75h-.985c-.468 0-1.218-.235-1.64-.563l-1.031-.797c-.563-.375-.844-1.03-.844-1.687v-1.125c0-.75.375-1.453 1.031-1.828l2.016-1.219a2.178 2.178 0 011.078-.281h1.453c.515 0 1.031.187 1.406.515l2.016 1.735h.843c.422 0 .797.14 1.079.422l.797.844c.187.14.375.234.609.234h.656a9.438 9.438 0 01-7.734 4.828z" fill="#D71362"/></svg>