<svg width="22" height="25" fill="none" xmlns="http://www.w3.org/2000/svg"><path d="M17.89 13.21c0-2.023.93-3.5 2.735-4.648-1.04-1.476-2.57-2.242-4.594-2.406-1.968-.164-4.101 1.094-4.867 1.094-.82 0-2.68-1.04-4.156-1.04-3.063.056-6.29 2.407-6.29 7.274 0 1.422.22 2.899.766 4.43.711 2.023 3.227 6.945 5.852 6.836 1.367 0 2.351-.984 4.156-.984 1.75 0 2.625.984 4.156.984 2.68 0 4.977-4.484 5.633-6.508-3.554-1.695-3.39-4.922-3.39-5.031zm-3.062-8.968c1.477-1.75 1.313-3.39 1.313-3.992-1.313.11-2.844.93-3.72 1.914-.983 1.094-1.53 2.461-1.421 3.938 1.422.109 2.734-.602 3.828-1.86z" fill="#111"/></svg>