<svg width="25" height="24" viewBox="0 0 25 24" fill="none" xmlns="http://www.w3.org/2000/svg">
<path d="M24.5 21.75V9.42188C24.5 8.71875 24.125 8.0625 23.6094 7.64062C22.4375 6.75 21.5 6 15.9219 1.96875C15.125 1.40625 13.5781 0 12.5 0.046875C11.375 0 9.82812 1.40625 9.03125 1.96875C3.45312 6 2.51562 6.75 1.34375 7.64062C0.828125 8.0625 0.5 8.71875 0.5 9.42188V21.75C0.5 23.0156 1.48438 24 2.75 24H22.25C23.4688 24 24.5 23.0156 24.5 21.75ZM21.4062 12.5625L21.8281 13.1719C21.875 13.2188 21.875 13.3125 21.875 13.4062C21.875 13.5 21.8281 13.6406 21.7344 13.6875C20.6562 14.4844 19.1562 15.6094 16.8125 17.2969C15.8281 18 14.1406 19.5469 12.5 19.5C10.8125 19.5469 9.125 18 8.14062 17.2969C5.79688 15.6094 4.29688 14.4844 3.21875 13.6875C3.125 13.6406 3.07812 13.5 3.07812 13.4062C3.07812 13.3125 3.07812 13.2188 3.125 13.1719L3.54688 12.5625C3.6875 12.375 3.92188 12.3281 4.10938 12.4688C5.14062 13.2656 6.6875 14.3906 9.03125 16.0781C9.82812 16.6406 11.375 18.0469 12.5 18C13.5781 18.0469 15.125 16.6406 15.9219 16.0781C18.2656 14.3906 19.8125 13.2656 20.8438 12.4688C21.0312 12.3281 21.2656 12.375 21.4062 12.5625Z" fill="white"/>
</svg>
