<svg width="25" height="24" viewBox="0 0 25 24" fill="none" xmlns="http://www.w3.org/2000/svg">
<path d="M23.7969 16.9688L18.5469 14.7188C18.4062 14.6719 18.2656 14.625 18.0781 14.625C17.75 14.625 17.4219 14.8125 17.2344 15.0469L14.8906 17.9062C11.2344 16.1719 8.32812 13.2656 6.59375 9.60938L9.45312 7.26562C9.6875 7.07812 9.875 6.75 9.875 6.375C9.875 6.23438 9.82812 6.09375 9.78125 5.95312L7.53125 0.703125C7.34375 0.28125 6.92188 0 6.45312 0C6.40625 0 6.3125 0.046875 6.21875 0.046875L1.34375 1.17188C0.828125 1.3125 0.5 1.73438 0.5 2.25C0.5 14.2969 10.2031 24 22.25 24C22.7656 24 23.1875 23.6719 23.3281 23.1562L24.4531 18.2812C24.4531 18.1875 24.4531 18.0938 24.4531 18.0469C24.4531 17.5781 24.1719 17.1562 23.7969 16.9688Z" fill="white"/>
</svg>
