<svg width="27" height="33" xmlns="http://www.w3.org/2000/svg"><path d="M22.36 17.414c0-2.602 1.195-4.5 3.515-5.977-1.336-1.898-3.305-2.882-5.906-3.093-2.532-.211-5.274 1.406-6.258 1.406-1.055 0-3.445-1.336-5.344-1.336-3.937.07-8.086 3.094-8.086 9.352 0 1.828.281 3.726.985 5.695.914 2.602 4.148 8.93 7.523 8.789 1.758 0 3.024-1.266 5.344-1.266 2.25 0 3.375 1.266 5.344 1.266 3.445 0 6.398-5.766 7.242-8.367-4.57-2.18-4.36-6.328-4.36-6.469zM18.421 5.883c1.898-2.25 1.687-4.36 1.687-5.133-1.687.14-3.656 1.195-4.78 2.46-1.267 1.407-1.97 3.165-1.829 5.063 1.828.141 3.516-.773 4.922-2.39z"/></svg>