<svg width="45" height="21" xmlns="http://www.w3.org/2000/svg"><path d="M7.805 10.57c0-.14-.14-.28-.282-.28-.21 0-.351.14-.351.28l-.352 4.57.352 4.782c0 .21.14.281.351.281.141 0 .282-.07.282-.281l.422-4.781-.422-4.57zM9.28 7.336c-.14 0-.281.14-.351.351l-.352 7.454.352 4.78c.07.212.21.352.351.352.211 0 .352-.14.352-.351l.422-4.781-.422-7.454c0-.21-.14-.351-.352-.351zm1.828-1.688c-.21 0-.351.141-.421.352l-.282 9.14.281 4.782c.07.21.211.351.422.351s.352-.14.352-.351l.351-4.781L11.462 6c0-.21-.14-.352-.352-.352zM.492 12.468c-.14 0-.14.071-.21.141L0 15.141l.281 2.46c.07.07.07.141.211.141.07 0 .14-.07.14-.14l.423-2.461-.422-2.532a.15.15 0 00-.14-.14zm1.617-1.546a.15.15 0 00-.14.14l-.492 4.079.492 3.937c0 .14.07.211.14.211.141 0 .211-.07.211-.21l.493-3.938-.493-4.079c0-.07-.07-.14-.21-.14zm1.829-.844c-.141 0-.211.14-.282.281l-.351 4.782.351 4.64c.07.07.14.211.281.211.07 0 .211-.14.211-.21l.493-4.641-.493-4.782c0-.14-.14-.28-.21-.28zm1.757-.14c-.14 0-.28.14-.28.28l-.353 4.923.352 4.78c0 .142.14.212.281.212.14 0 .282-.07.282-.211l.421-4.781-.421-4.922c0-.14-.141-.281-.282-.281zm16.946-7.805c-.07-.07-.141-.07-.282-.07a.54.54 0 00-.351.14c-.14.07-.281.281-.281.422v.07l-.211 12.446.14 2.25.07 2.25c.07.351.352.632.633.632a.63.63 0 00.633-.632l.281-4.5-.28-12.516c-.071-.21-.141-.352-.352-.492zm-1.828 1.125c-.141-.07-.211-.14-.352-.14-.07 0-.211.07-.281.14a.475.475 0 00-.282.422v.14l-.21 11.32.21 4.57v.071c0 .07.07.211.141.282.14.14.281.21.422.21.21 0 .352-.07.422-.14.14-.07.14-.211.14-.422l.07-.422.212-4.148-.211-11.461c-.07-.211-.14-.352-.282-.422zm-7.875 1.547a.453.453 0 00-.422.422l-.282 9.914.282 4.71c.07.212.21.422.421.422.282 0 .422-.21.422-.421l.352-4.711-.352-9.914c0-.211-.14-.422-.421-.422zm26.507 4.43a5.73 5.73 0 00-2.18.421c-.421-4.992-4.57-8.86-9.703-8.86-1.265 0-2.46.212-3.515.634-.422.14-.563.28-.563.633V19.64c0 .351.282.562.633.632h15.328a5.491 5.491 0 005.485-5.484c.07-3.094-2.461-5.555-5.485-5.555zm-20.883-4.22c-.28 0-.492.212-.562.493l-.21 9.633.21 4.64c.07.282.281.492.563.492.28 0 .562-.21.562-.492l.281-4.64-.281-9.633c-.07-.281-.281-.492-.563-.492zm-3.726-.562c-.281 0-.492.211-.492.422l-.281 10.266.28 4.71c.071.212.212.422.493.422.21 0 .422-.21.422-.421l.351-4.711-.351-10.266c0-.21-.211-.422-.422-.422zm1.828.211a.48.48 0 00-.492.492l-.211 9.985.21 4.64c.071.282.282.492.493.492a.48.48 0 00.492-.492l.282-4.64-.282-9.985a.48.48 0 00-.492-.492z"/></svg>