<svg width="43" height="43" xmlns="http://www.w3.org/2000/svg"><path d="M22 10.219c-6 0-10.781 4.875-10.781 10.781C11.219 27 16 31.781 22 31.781 27.906 31.781 32.781 27 32.781 21c0-5.906-4.875-10.781-10.781-10.781zm0 17.812c-3.844 0-7.031-3.093-7.031-7.031 0-3.844 3.094-6.938 7.031-6.938A6.922 6.922 0 0128.938 21c0 3.938-3.094 7.031-6.938 7.031zM35.688 9.844a2.52 2.52 0 00-2.532-2.531 2.52 2.52 0 00-2.531 2.53 2.52 2.52 0 002.531 2.532 2.52 2.52 0 002.532-2.531zm7.124 2.531C42.626 9 41.876 6 39.438 3.562 37 1.126 34 .376 30.624.188 27.156 0 16.75 0 13.281.188 9.906.374 7 1.125 4.47 3.562 2.03 6 1.28 9 1.094 12.376c-.188 3.469-.188 13.875 0 17.344.187 3.375.937 6.281 3.375 8.812C7 40.97 9.906 41.72 13.28 41.906c3.469.188 13.875.188 17.344 0C34 41.72 37 40.97 39.438 38.531c2.437-2.531 3.187-5.437 3.374-8.812.188-3.469.188-13.875 0-17.344zm-4.5 21c-.656 1.875-2.156 3.281-3.937 4.031C31.562 38.531 25 38.25 22 38.25c-3.094 0-9.656.281-12.375-.844a7.108 7.108 0 01-4.031-4.031C4.469 30.656 4.75 24.094 4.75 21c0-3-.281-9.563.844-12.375.75-1.781 2.156-3.188 4.031-3.938 2.719-1.125 9.281-.843 12.375-.843 3 0 9.563-.281 12.375.844 1.781.656 3.188 2.156 3.938 3.937 1.124 2.813.843 9.375.843 12.375 0 3.094.282 9.656-.843 12.375z"/></svg>