<svg width="51" height="54" xmlns="http://www.w3.org/2000/svg"><path d="M30.188 35.063h-9.47c1.313 1.312 2.907 2.25 4.688 2.906 1.875-.657 3.469-1.594 4.782-2.907zm4.125-18.75c1.874-1.5 4.03-2.72 6.468-3.375V28.03c0 20.625-30.75 20.438-30.75.094V12.937a17.029 17.029 0 016.563 3.47 15.52 15.52 0 0117.718-.095zm-19.594-5.438c6-5.625 15.375-5.625 21.468 0-.656.281-1.312.656-1.968 1.031-5.438-2.812-12.094-2.812-17.625 0a12.012 12.012 0 00-1.875-1.031zM6.28 8.812v6.47c-5.437 3.374-5.437 11.343 0 14.812 2.532 22.968 35.813 22.593 38.25.187v-.187c5.532-3.375 5.532-11.438.094-14.813V8.812c-1.688 0-3.188.282-4.781.657-7.688-8.531-21.094-8.531-28.782 0-1.5-.375-3.093-.656-4.78-.656zM26.531 33s3.375 0 5.719-.094c.938-.093 1.969-.375 2.438-.656 2.437-1.406 2.343-3.656 2.437-4.406-7.5-.094-9.375-.375-10.594 5.156zm-12.75-5.156c.094.75 0 3 2.438 4.5.468.187 1.5.562 2.437.562 2.344.094 5.719.188 5.719.188-1.219-5.625-3.094-5.344-10.594-5.25zm15.844 11.625c-.281-.563-.656-.75-.656-.75-2.25.75-4.875.656-7.032 0 0 0-.28.187-.656.656a2.367 2.367 0 00-.375.844c2.813 1.687 6.375 1.687 9.094 0 0 0-.094-.375-.375-.75z"/></svg>