<svg width="35" height="35" xmlns="http://www.w3.org/2000/svg"><path d="M17.438.063C7.805.063 0 7.938 0 17.5c0 9.633 7.805 17.438 17.438 17.438 9.562 0 17.437-7.805 17.437-17.438C34.875 7.937 27 .062 17.437.062zm7.03 25.664c-.28 0-.491-.07-.702-.211-4.43-2.672-9.493-2.743-14.555-1.758-.281.07-.633.21-.844.21-.703 0-1.125-.562-1.125-1.124 0-.703.422-1.055.985-1.196 5.765-1.265 11.601-1.125 16.664 1.829.422.28.632.562.632 1.195s-.492 1.055-1.054 1.055zm1.9-4.57c-.352 0-.634-.212-.845-.282-4.43-2.602-10.968-3.656-16.804-2.11-.352.07-.492.212-.844.212-.703 0-1.336-.633-1.336-1.407 0-.703.352-1.195 1.055-1.406 1.968-.562 4.008-.984 6.89-.984 4.57 0 9 1.125 12.446 3.234.562.281.843.773.843 1.336-.07.773-.632 1.406-1.406 1.406zm2.179-5.345c-.352 0-.563-.14-.914-.28-4.992-3.024-13.922-3.727-19.758-2.11-.21.07-.563.21-.914.21-.914 0-1.617-.773-1.617-1.687 0-.984.633-1.476 1.265-1.687 2.461-.703 5.204-1.055 8.227-1.055 5.133 0 10.547 1.055 14.414 3.375.563.281.914.703.914 1.547 0 .984-.773 1.688-1.617 1.688z"/></svg>