<svg width="25" height="25" xmlns="http://www.w3.org/2000/svg"><path d="M21.031 3.86A11.946 11.946 0 0012.445.25C5.773.25.305 5.719.305 12.39c0 2.188.601 4.266 1.64 6.07L.25 24.75l6.398-1.64c1.805.93 3.774 1.476 5.797 1.476 6.727 0 12.305-5.469 12.305-12.14 0-3.282-1.422-6.29-3.719-8.587zm-8.586 18.648c-1.804 0-3.554-.492-5.14-1.422l-.328-.219-3.829 1.04 1.04-3.72-.274-.382c-.984-1.64-1.531-3.5-1.531-5.414 0-5.524 4.539-10.063 10.117-10.063a9.97 9.97 0 017.11 2.953c1.913 1.914 3.062 4.43 3.062 7.164 0 5.524-4.649 10.063-10.227 10.063zm5.578-7.547c-.328-.164-1.804-.875-2.078-.984-.273-.11-.492-.165-.71.164-.165.273-.766.984-.93 1.203-.22.164-.383.219-.657.054-1.804-.875-2.953-1.585-4.156-3.609-.328-.547.328-.492.875-1.64.11-.22.055-.383 0-.547-.055-.165-.71-1.641-.93-2.243-.273-.601-.492-.546-.71-.546H8.18c-.22 0-.547.054-.82.382-.274.328-1.04 1.04-1.04 2.516 0 1.531 1.04 2.953 1.203 3.172.165.164 2.133 3.226 5.196 4.539 1.914.875 2.68.93 3.664.765.547-.054 1.75-.71 2.023-1.421.274-.711.274-1.313.164-1.422-.054-.164-.273-.219-.547-.383z"/></svg>