<svg width="26" height="25" xmlns="http://www.w3.org/2000/svg"><path d="M13 6.21c-3.5 0-6.29 2.845-6.29 6.29 0 3.5 2.79 6.29 6.29 6.29 3.445 0 6.29-2.79 6.29-6.29 0-3.445-2.845-6.29-6.29-6.29zm0 10.392A4.096 4.096 0 018.898 12.5c0-2.242 1.805-4.047 4.102-4.047a4.038 4.038 0 014.047 4.047c0 2.297-1.805 4.102-4.047 4.102zm7.984-10.61a1.47 1.47 0 00-1.476-1.476 1.47 1.47 0 00-1.477 1.476c0 .82.657 1.477 1.477 1.477a1.47 1.47 0 001.476-1.477zm4.157 1.477c-.11-1.969-.547-3.719-1.97-5.14C21.75.905 20 .468 18.032.358 16.008.25 9.938.25 7.914.36 5.945.47 4.25.906 2.774 2.33 1.351 3.75.913 5.5.803 7.468c-.109 2.023-.109 8.093 0 10.117.11 1.969.548 3.664 1.97 5.14 1.476 1.422 3.171 1.86 5.14 1.97 2.024.109 8.094.109 10.117 0 1.969-.11 3.719-.548 5.14-1.97 1.423-1.476 1.86-3.171 1.97-5.14.109-2.023.109-8.094 0-10.117zm-2.625 12.25c-.383 1.093-1.258 1.914-2.297 2.351-1.64.657-5.469.492-7.219.492-1.805 0-5.633.165-7.219-.492a4.146 4.146 0 01-2.351-2.35c-.657-1.586-.493-5.414-.493-7.219 0-1.75-.164-5.578.493-7.219a4.218 4.218 0 012.35-2.298c1.586-.656 5.414-.492 7.219-.492 1.75 0 5.578-.164 7.219.492 1.039.383 1.86 1.258 2.297 2.297.656 1.64.492 5.469.492 7.219 0 1.805.164 5.633-.492 7.219z"/></svg>