<svg width="48" height="40" xmlns="http://www.w3.org/2000/svg"><path d="M43.031 10.25c1.875-1.406 3.563-3.094 4.875-5.063-1.687.75-3.656 1.313-5.625 1.5 2.063-1.218 3.563-3.093 4.313-5.437a20.79 20.79 0 01-6.188 2.438A9.844 9.844 0 0033.188.594a9.842 9.842 0 00-9.844 9.844c0 .75.093 1.5.281 2.25-8.156-.47-15.469-4.407-20.344-10.313C2.437 3.781 1.97 5.469 1.97 7.344A9.685 9.685 0 006.375 15.5c-1.594-.094-3.188-.469-4.5-1.219v.094c0 4.781 3.375 8.719 7.875 9.656-.75.188-1.688.375-2.531.375-.657 0-1.219-.093-1.875-.187 1.218 3.937 4.875 6.75 9.187 6.843-3.375 2.625-7.594 4.22-12.187 4.22-.844 0-1.594-.094-2.344-.188C4.313 37.906 9.469 39.5 15.094 39.5c18.093 0 27.937-14.906 27.937-27.938V10.25z"/></svg>