<svg width="43" height="38" xmlns="http://www.w3.org/2000/svg"><path d="M41.906 9.438c.282-5.438-1.781-8.25-6.093-8.344C30 .906 26.063 4.187 24 10.938c2.625-1.126 6.375-1.407 6 2.906-.188 1.406-1.125 3.562-2.906 6.281-4.875 7.781-6.094 5.156-8.719-11.813-.75-4.78-2.813-7.03-6.094-6.75-2.906.282-7.5 4.97-12.281 9.282l1.969 2.531c1.875-1.313 2.906-1.969 3.281-1.969 2.719 0 4.125 7.031 7.406 19.219 1.688 4.5 3.75 6.75 6.188 6.75 4.031 0 8.812-3.75 14.531-11.156 5.531-7.125 8.344-12.657 8.531-16.782z"/></svg>