<svg width="22" height="25" viewBox="0 0 22 25" fill="none" xmlns="http://www.w3.org/2000/svg">
<path d="M17.8906 13.2109C17.8906 11.1875 18.8203 9.71094 20.625 8.5625C19.5859 7.08594 18.0547 6.32031 16.0312 6.15625C14.0625 5.99219 11.9297 7.25 11.1641 7.25C10.3438 7.25 8.48438 6.21094 7.00781 6.21094C3.94531 6.26562 0.71875 8.61719 0.71875 13.4844C0.71875 14.9062 0.9375 16.3828 1.48438 17.9141C2.19531 19.9375 4.71094 24.8594 7.33594 24.75C8.70312 24.75 9.6875 23.7656 11.4922 23.7656C13.2422 23.7656 14.1172 24.75 15.6484 24.75C18.3281 24.75 20.625 20.2656 21.2812 18.2422C17.7266 16.5469 17.8906 13.3203 17.8906 13.2109ZM14.8281 4.24219C16.3047 2.49219 16.1406 0.851562 16.1406 0.25C14.8281 0.359375 13.2969 1.17969 12.4219 2.16406C11.4375 3.25781 10.8906 4.625 11 6.10156C12.4219 6.21094 13.7344 5.5 14.8281 4.24219Z" fill="#111111"/>
</svg>
