<?xml version="1.0" encoding="utf-8"?><svg viewBox="0 0 52 54" xmlns="http://www.w3.org/2000/svg" xmlns:xlink="http://www.w3.org/1999/xlink"><style>:root>svg{display:none}:root>svg:target{display:block}</style><svg viewBox="0 0 27 33" id="apple" xmlns="http://www.w3.org/2000/svg"><path d="M22.36 17.414c0-2.602 1.195-4.5 3.515-5.977-1.336-1.898-3.305-2.882-5.906-3.093-2.532-.211-5.274 1.406-6.258 1.406-1.055 0-3.445-1.336-5.344-1.336-3.937.07-8.086 3.094-8.086 9.352 0 1.828.281 3.726.985 5.695.914 2.602 4.148 8.93 7.523 8.789 1.758 0 3.024-1.266 5.344-1.266 2.25 0 3.375 1.266 5.344 1.266 3.445 0 6.398-5.766 7.242-8.367-4.57-2.18-4.36-6.328-4.36-6.469zM18.421 5.883c1.898-2.25 1.687-4.36 1.687-5.133-1.687.14-3.656 1.195-4.78 2.46-1.267 1.407-1.97 3.165-1.829 5.063 1.828.141 3.516-.773 4.922-2.39z"/></svg><svg fill="none" viewBox="0 0 21 24" id="calendar" xmlns="http://www.w3.org/2000/svg"><path d="M0 21.75C0 23.016.984 24 2.25 24h16.5A2.25 2.25 0 0021 21.75V9H0v12.75zm15-9.188a.57.57 0 01.563-.562h1.874c.282 0 .563.281.563.563v1.874a.57.57 0 01-.563.563h-1.875a.542.542 0 01-.562-.563v-1.874zm0 6a.57.57 0 01.563-.562h1.874c.282 0 .563.281.563.563v1.875a.57.57 0 01-.563.562h-1.875a.542.542 0 01-.562-.563v-1.875zm-6-6A.57.57 0 019.563 12h1.874c.282 0 .563.281.563.563v1.874a.57.57 0 01-.563.563H9.563A.542.542 0 019 14.437v-1.874zm0 6A.57.57 0 019.563 18h1.874c.282 0 .563.281.563.563v1.875a.57.57 0 01-.563.562H9.563A.542.542 0 019 20.437v-1.875zm-6-6A.57.57 0 013.563 12h1.874c.282 0 .563.281.563.563v1.874a.57.57 0 01-.563.563H3.563A.542.542 0 013 14.437v-1.874zm0 6A.57.57 0 013.563 18h1.874c.282 0 .563.281.563.563v1.875a.57.57 0 01-.563.562H3.563A.542.542 0 013 20.437v-1.875zM18.75 3H16.5V.75c0-.375-.375-.75-.75-.75h-1.5c-.422 0-.75.375-.75.75V3h-6V.75C7.5.375 7.125 0 6.75 0h-1.5c-.422 0-.75.375-.75.75V3H2.25A2.25 2.25 0 000 5.25V7.5h21V5.25C21 4.031 19.969 3 18.75 3z" fill="#D71362"/></svg><svg fill="none" viewBox="0 0 25 24" id="clock" xmlns="http://www.w3.org/2000/svg"><path d="M12.5.375C6.078.375.875 5.578.875 12S6.078 23.625 12.5 23.625 24.125 18.422 24.125 12 18.922.375 12.5.375zm4.313 14.672l-.938 1.172c-.14.187-.328.328-.61.328a.698.698 0 01-.421-.188l-3.14-2.343c-.47-.329-.704-.844-.704-1.454V5.25c0-.375.328-.75.75-.75h1.5c.375 0 .75.375.75.75V12l2.719 2.016c.14.14.281.328.281.562a.717.717 0 01-.188.469z" fill="#D71362"/></svg><svg viewBox="0 0 48 47" id="facebook" xmlns="http://www.w3.org/2000/svg"><path d="M47.25 24C47.25 11.156 36.844.75 24 .75S.75 11.156.75 24c0 11.625 8.438 21.281 19.594 22.969V30.75h-5.907V24h5.907v-5.063c0-5.812 3.468-9.093 8.718-9.093 2.625 0 5.25.469 5.25.469v5.718h-2.906c-2.906 0-3.843 1.782-3.843 3.657V24h6.468L33 30.75h-5.438v16.219C38.72 45.28 47.25 35.625 47.25 24z"/></svg><svg viewBox="0 0 45 21" id="icloud" xmlns="http://www.w3.org/2000/svg"><path d="M7.805 10.57c0-.14-.14-.28-.282-.28-.21 0-.351.14-.351.28l-.352 4.57.352 4.782c0 .21.14.281.351.281.141 0 .282-.07.282-.281l.422-4.781-.422-4.57zM9.28 7.336c-.14 0-.281.14-.351.351l-.352 7.454.352 4.78c.07.212.21.352.351.352.211 0 .352-.14.352-.351l.422-4.781-.422-7.454c0-.21-.14-.351-.352-.351zm1.828-1.688c-.21 0-.351.141-.421.352l-.282 9.14.281 4.782c.07.21.211.351.422.351s.352-.14.352-.351l.351-4.781L11.462 6c0-.21-.14-.352-.352-.352zM.492 12.468c-.14 0-.14.071-.21.141L0 15.141l.281 2.46c.07.07.07.141.211.141.07 0 .14-.07.14-.14l.423-2.461-.422-2.532c0-.07-.07-.14-.14-.14zm1.617-1.546c-.07 0-.14.07-.14.14l-.492 4.079.492 3.937c0 .14.07.211.14.211.141 0 .211-.07.211-.21l.493-3.938-.493-4.079c0-.07-.07-.14-.21-.14zm1.829-.844c-.141 0-.211.14-.282.281l-.351 4.782.351 4.64c.07.07.14.211.281.211.07 0 .211-.14.211-.21l.493-4.641-.493-4.782c0-.14-.14-.28-.21-.28zm1.757-.14c-.14 0-.28.14-.28.28l-.353 4.923.352 4.78c0 .142.14.212.281.212.14 0 .282-.07.282-.211l.421-4.781-.421-4.922c0-.14-.141-.281-.282-.281zm16.946-7.805c-.07-.07-.141-.07-.282-.07-.14 0-.28.07-.351.14-.14.07-.281.281-.281.422v.07l-.211 12.446.14 2.25.07 2.25c.07.351.352.632.633.632a.63.63 0 00.633-.632l.281-4.5-.28-12.516c-.071-.21-.141-.352-.352-.492zm-1.828 1.125c-.141-.07-.211-.14-.352-.14-.07 0-.211.07-.281.14a.475.475 0 00-.282.422v.14l-.21 11.32.21 4.57v.071c0 .07.07.211.141.282.14.14.281.21.422.21.21 0 .352-.07.422-.14.14-.07.14-.211.14-.422l.07-.422.212-4.148-.211-11.461c-.07-.211-.14-.352-.282-.422zm-7.875 1.547c-.211 0-.422.21-.422.422l-.282 9.914.282 4.71c.07.212.21.422.421.422.282 0 .422-.21.422-.421l.352-4.711-.352-9.914c0-.211-.14-.422-.421-.422zm26.507 4.43a5.73 5.73 0 00-2.18.421c-.421-4.992-4.57-8.86-9.703-8.86-1.265 0-2.46.212-3.515.634-.422.14-.563.28-.563.633V19.64c0 .351.282.562.633.632h15.328a5.491 5.491 0 005.485-5.484c.07-3.094-2.461-5.555-5.485-5.555zm-20.883-4.22c-.28 0-.492.212-.562.493l-.21 9.633.21 4.64c.07.282.281.492.563.492.28 0 .562-.21.562-.492l.281-4.64-.281-9.633c-.07-.281-.281-.492-.563-.492zm-3.726-.562c-.281 0-.492.211-.492.422l-.281 10.266.28 4.71c.071.212.212.422.493.422.21 0 .422-.21.422-.421l.351-4.711-.351-10.266c0-.21-.211-.422-.422-.422zm1.828.211a.48.48 0 00-.492.492l-.211 9.985.21 4.64c.071.282.282.492.493.492a.48.48 0 00.492-.492l.282-4.64-.282-9.985a.48.48 0 00-.492-.492z"/></svg><svg viewBox="0 0 43 43" id="instagram" xmlns="http://www.w3.org/2000/svg"><path d="M22 10.219c-6 0-10.781 4.875-10.781 10.781C11.219 27 16 31.781 22 31.781 27.906 31.781 32.781 27 32.781 21c0-5.906-4.875-10.781-10.781-10.781zm0 17.812c-3.844 0-7.031-3.093-7.031-7.031 0-3.844 3.094-6.938 7.031-6.938A6.922 6.922 0 0128.938 21c0 3.938-3.094 7.031-6.938 7.031zM35.688 9.844a2.52 2.52 0 00-2.532-2.531 2.52 2.52 0 00-2.531 2.53 2.52 2.52 0 002.531 2.532 2.52 2.52 0 002.532-2.531zm7.124 2.531C42.626 9 41.876 6 39.438 3.562 37 1.126 34 .376 30.624.188 27.156 0 16.75 0 13.281.188 9.906.374 7 1.125 4.47 3.562 2.03 6 1.28 9 1.094 12.376c-.188 3.469-.188 13.875 0 17.344.187 3.375.937 6.281 3.375 8.812C7 40.97 9.906 41.72 13.28 41.906c3.469.188 13.875.188 17.344 0C34 41.72 37 40.97 39.438 38.531c2.437-2.531 3.187-5.437 3.374-8.812.188-3.469.188-13.875 0-17.344zm-4.5 21c-.656 1.875-2.156 3.281-3.937 4.031C31.562 38.531 25 38.25 22 38.25c-3.094 0-9.656.281-12.375-.844a7.108 7.108 0 01-4.031-4.031C4.469 30.656 4.75 24.094 4.75 21c0-3-.281-9.563.844-12.375.75-1.781 2.156-3.188 4.031-3.938 2.719-1.125 9.281-.843 12.375-.843 3 0 9.563-.281 12.375.844 1.781.656 3.188 2.156 3.938 3.937 1.124 2.813.843 9.375.843 12.375 0 3.094.282 9.656-.843 12.375z"/></svg><svg fill="none" viewBox="0 0 27 25" id="map" xmlns="http://www.w3.org/2000/svg"><path d="M13.5 0c-3.281 0-5.906 2.672-5.906 5.906 0 2.672 3.843 7.453 5.297 9.235a.82.82 0 001.171 0c1.454-1.782 5.344-6.563 5.344-9.235C19.406 2.672 16.734 0 13.5 0zm0 7.875c-1.125 0-1.969-.844-1.969-1.969A1.95 1.95 0 0113.5 3.938a1.98 1.98 0 011.969 1.968A1.95 1.95 0 0113.5 7.875zM.937 10.125A1.535 1.535 0 000 11.531V23.25c0 .563.516.938.984.703L7.5 21V10.078c-.422-.75-.797-1.453-1.031-2.156L.937 10.125zm12.563 6.75c-.703 0-1.313-.281-1.734-.797C10.828 15 9.844 13.781 9 12.468V21l9 3V12.469c-.89 1.312-1.875 2.531-2.813 3.61a2.156 2.156 0 01-1.687.796zm12.469-9.281L19.5 10.5V24l6.516-2.578c.562-.235.984-.797.984-1.406V8.296c0-.562-.563-.937-1.031-.702z" fill="#D71362"/></svg><svg viewBox="0 0 51 54" id="napster" xmlns="http://www.w3.org/2000/svg"><path d="M30.188 35.063h-9.47c1.313 1.312 2.907 2.25 4.688 2.906 1.875-.657 3.469-1.594 4.782-2.907zm4.125-18.75c1.874-1.5 4.03-2.72 6.468-3.375V28.03c0 20.625-30.75 20.438-30.75.094V12.937a17.029 17.029 0 016.563 3.47 15.52 15.52 0 0117.718-.095zm-19.594-5.438c6-5.625 15.375-5.625 21.468 0-.656.281-1.312.656-1.968 1.031-5.438-2.812-12.094-2.812-17.625 0a12.012 12.012 0 00-1.875-1.031zM6.28 8.812v6.47c-5.437 3.374-5.437 11.343 0 14.812 2.532 22.968 35.813 22.593 38.25.187v-.187c5.532-3.375 5.532-11.438.094-14.813V8.812c-1.688 0-3.188.282-4.781.657-7.688-8.531-21.094-8.531-28.782 0-1.5-.375-3.093-.656-4.78-.656zM26.531 33s3.375 0 5.719-.094c.938-.093 1.969-.375 2.438-.656 2.437-1.406 2.343-3.656 2.437-4.406-7.5-.094-9.375-.375-10.594 5.156zm-12.75-5.156c.094.75 0 3 2.438 4.5.468.187 1.5.562 2.437.562 2.344.094 5.719.188 5.719.188-1.219-5.625-3.094-5.344-10.594-5.25zm15.844 11.625c-.281-.563-.656-.75-.656-.75-2.25.75-4.875.656-7.032 0 0 0-.28.187-.656.656a2.367 2.367 0 00-.375.844c2.813 1.687 6.375 1.687 9.094 0 0 0-.094-.375-.375-.75z"/></svg><svg fill="none" viewBox="0 0 25 24" id="planet" xmlns="http://www.w3.org/2000/svg"><path d="M12.5.375C6.078.375.875 5.578.875 12S6.078 23.625 12.5 23.625 24.125 18.422 24.125 12 18.922.375 12.5.375zM21.875 12c0 1.078-.188 2.11-.516 3.047h-.984a.753.753 0 01-.516-.235l-1.5-1.546c-.187-.188-.187-.563 0-.75l.61-.61v-.375c0-.14-.094-.281-.188-.375l-.422-.469a.533.533 0 00-.375-.14h-.75a.52.52 0 01-.515-.516c0-.14.047-.281.14-.375l.422-.469a.532.532 0 01.375-.14h1.5c.328 0 .563-.235.563-.516v-.469c0-.28-.235-.515-.563-.515H17.47a.74.74 0 00-.75.75v.187c0 .329-.235.61-.516.75l-1.5.47c-.14.046-.234.187-.234.374v.094a.403.403 0 01-.375.375h-.75a.37.37 0 01-.375-.375.37.37 0 00-.375-.375h-.14c-.142 0-.282.094-.376.187l-.422.891c-.14.234-.375.422-.656.422H9.969a.74.74 0 01-.75-.75V9.328c0-.187.047-.375.187-.515l.938-.938c.234-.234.375-.516.375-.797 0-.187.094-.328.234-.375l1.875-.61a.645.645 0 00.188-.14l1.265-1.266c.094-.093.188-.234.188-.375 0-.28-.281-.515-.563-.515h-.937l-.75.75v.375a.403.403 0 01-.375.375h-.75a.37.37 0 01-.375-.375v-.938c0-.14.047-.234.14-.328l1.36-.984c.094 0 .14-.047.234-.047 5.203 0 9.422 4.219 9.422 9.375zM6.969 7.031c0-.14.047-.281.14-.375l1.172-1.218a.532.532 0 01.375-.141c.328 0 .563.234.563.516v.75c0 .14-.094.28-.188.375l-.422.468a.532.532 0 01-.375.14h-.75a.52.52 0 01-.515-.515zm6 14.344v-.328c0-.422-.375-.75-.75-.75h-.985c-.468 0-1.218-.235-1.64-.563l-1.031-.797c-.563-.375-.844-1.03-.844-1.687v-1.125c0-.75.375-1.453 1.031-1.828l2.016-1.219a2.178 2.178 0 011.078-.281h1.453c.515 0 1.031.187 1.406.515l2.016 1.735h.843c.422 0 .797.14 1.079.422l.797.844c.187.14.375.234.609.234h.656a9.438 9.438 0 01-7.734 4.828z" fill="#D71362"/></svg><svg viewBox="0 0 35 35" id="spotify" xmlns="http://www.w3.org/2000/svg"><path d="M17.438.063C7.805.063 0 7.938 0 17.5c0 9.633 7.805 17.438 17.438 17.438 9.562 0 17.437-7.805 17.437-17.438C34.875 7.937 27 .062 17.437.062zm7.03 25.664c-.28 0-.491-.07-.702-.211-4.43-2.672-9.493-2.743-14.555-1.758-.281.07-.633.21-.844.21-.703 0-1.125-.562-1.125-1.124 0-.703.422-1.055.985-1.196 5.765-1.265 11.601-1.125 16.664 1.829.422.28.632.562.632 1.195s-.492 1.055-1.054 1.055zm1.9-4.57c-.352 0-.634-.212-.845-.282-4.43-2.602-10.968-3.656-16.804-2.11-.352.07-.492.212-.844.212-.703 0-1.336-.633-1.336-1.407 0-.703.352-1.195 1.055-1.406 1.968-.562 4.008-.984 6.89-.984 4.57 0 9 1.125 12.446 3.234.562.281.843.773.843 1.336-.07.773-.632 1.406-1.406 1.406zm2.179-5.345c-.352 0-.563-.14-.914-.28-4.992-3.024-13.922-3.727-19.758-2.11-.21.07-.563.21-.914.21-.914 0-1.617-.773-1.617-1.687 0-.984.633-1.476 1.265-1.687 2.461-.703 5.204-1.055 8.227-1.055 5.133 0 10.547 1.055 14.414 3.375.563.281.914.703.914 1.547 0 .984-.773 1.688-1.617 1.688z"/></svg><svg viewBox="0 0 29 28" id="team-facebook" xmlns="http://www.w3.org/2000/svg"><path d="M28.063 14.5C28.063 7.008 21.992.937 14.5.937 7.008.938.937 7.008.937 14.5c0 6.781 4.922 12.414 11.43 13.398v-9.46H8.922V14.5h3.445v-2.953c0-3.39 2.024-5.305 5.086-5.305 1.531 0 3.063.274 3.063.274v3.336H18.82c-1.695 0-2.242 1.039-2.242 2.132V14.5h3.774l-.602 3.938h-3.172v9.46c6.508-.984 11.485-6.617 11.485-13.398z"/></svg><svg viewBox="0 0 26 25" id="team-instagram" xmlns="http://www.w3.org/2000/svg"><path d="M13 6.21c-3.5 0-6.29 2.845-6.29 6.29 0 3.5 2.79 6.29 6.29 6.29 3.445 0 6.29-2.79 6.29-6.29 0-3.445-2.845-6.29-6.29-6.29zm0 10.392A4.096 4.096 0 018.898 12.5c0-2.242 1.805-4.047 4.102-4.047a4.038 4.038 0 014.047 4.047c0 2.297-1.805 4.102-4.047 4.102zm7.984-10.61a1.47 1.47 0 00-1.476-1.476 1.47 1.47 0 00-1.477 1.476c0 .82.657 1.477 1.477 1.477a1.47 1.47 0 001.476-1.477zm4.157 1.477c-.11-1.969-.547-3.719-1.97-5.14C21.75.905 20 .468 18.032.358 16.008.25 9.938.25 7.914.36 5.945.47 4.25.906 2.774 2.33 1.351 3.75.913 5.5.803 7.468c-.109 2.023-.109 8.093 0 10.117.11 1.969.548 3.664 1.97 5.14 1.476 1.422 3.171 1.86 5.14 1.97 2.024.109 8.094.109 10.117 0 1.969-.11 3.719-.548 5.14-1.97 1.423-1.476 1.86-3.171 1.97-5.14.109-2.023.109-8.094 0-10.117zm-2.625 12.25c-.383 1.093-1.258 1.914-2.297 2.351-1.64.657-5.469.492-7.219.492-1.805 0-5.633.165-7.219-.492A4.146 4.146 0 013.43 19.72c-.657-1.586-.493-5.414-.493-7.219 0-1.75-.164-5.578.493-7.219A4.218 4.218 0 015.78 2.984c1.586-.656 5.414-.492 7.219-.492 1.75 0 5.578-.164 7.219.492 1.039.383 1.86 1.258 2.297 2.297.656 1.64.492 5.469.492 7.219 0 1.805.164 5.633-.492 7.219z"/></svg><svg viewBox="0 0 29 23" id="team-twitter" xmlns="http://www.w3.org/2000/svg"><path d="M25.602 5.813c1.093-.82 2.078-1.805 2.843-2.954-.984.438-2.133.766-3.28.875A5.61 5.61 0 0027.68.563a12.129 12.129 0 01-3.61 1.421A5.742 5.742 0 0019.86.18a5.741 5.741 0 00-5.743 5.742c0 .437.055.875.164 1.312A16.66 16.66 0 012.414 1.22c-.492.82-.766 1.804-.766 2.898a5.65 5.65 0 002.57 4.758c-.929-.055-1.859-.273-2.624-.71v.054c0 2.789 1.968 5.086 4.593 5.633-.437.109-.984.218-1.476.218-.383 0-.711-.054-1.094-.11.711 2.298 2.844 3.938 5.36 3.993-1.97 1.531-4.43 2.461-7.11 2.461-.492 0-.93-.055-1.367-.11 2.516 1.641 5.523 2.571 8.805 2.571 10.554 0 16.297-8.695 16.297-16.297v-.766z"/></svg><svg viewBox="0 0 25 25" id="team-whatsap" xmlns="http://www.w3.org/2000/svg"><path d="M21.031 3.86A11.946 11.946 0 0012.445.25C5.773.25.305 5.719.305 12.39c0 2.188.601 4.266 1.64 6.07L.25 24.75l6.398-1.64c1.805.93 3.774 1.476 5.797 1.476 6.727 0 12.305-5.469 12.305-12.14 0-3.282-1.422-6.29-3.719-8.587zm-8.586 18.648c-1.804 0-3.554-.492-5.14-1.422l-.328-.219-3.829 1.04 1.04-3.72-.274-.382c-.984-1.64-1.531-3.5-1.531-5.414 0-5.524 4.539-10.063 10.117-10.063a9.97 9.97 0 017.11 2.953c1.913 1.914 3.062 4.43 3.062 7.164 0 5.524-4.649 10.063-10.227 10.063zm5.578-7.547c-.328-.164-1.804-.875-2.078-.984-.273-.11-.492-.165-.71.164-.165.273-.766.984-.93 1.203-.22.164-.383.219-.657.054-1.804-.875-2.953-1.585-4.156-3.609-.328-.547.328-.492.875-1.64.11-.22.055-.383 0-.547-.055-.165-.71-1.641-.93-2.243-.273-.601-.492-.546-.71-.546H8.18c-.22 0-.547.054-.82.382-.274.328-1.04 1.04-1.04 2.516 0 1.531 1.04 2.953 1.203 3.172.165.164 2.133 3.226 5.196 4.539 1.914.875 2.68.93 3.664.765.547-.054 1.75-.71 2.023-1.421.274-.711.274-1.313.164-1.422-.054-.164-.273-.219-.547-.383z"/></svg><svg viewBox="0 0 48 40" id="twitter" xmlns="http://www.w3.org/2000/svg"><path d="M43.031 10.25c1.875-1.406 3.563-3.094 4.875-5.063-1.687.75-3.656 1.313-5.625 1.5 2.063-1.218 3.563-3.093 4.313-5.437a20.79 20.79 0 01-6.188 2.438A9.844 9.844 0 0033.188.594a9.842 9.842 0 00-9.844 9.844c0 .75.093 1.5.281 2.25-8.156-.47-15.469-4.407-20.344-10.313C2.437 3.781 1.97 5.469 1.97 7.344A9.685 9.685 0 006.375 15.5c-1.594-.094-3.188-.469-4.5-1.219v.094c0 4.781 3.375 8.719 7.875 9.656-.75.188-1.688.375-2.531.375-.657 0-1.219-.093-1.875-.187 1.218 3.937 4.875 6.75 9.187 6.843-3.375 2.625-7.594 4.22-12.187 4.22-.844 0-1.594-.094-2.344-.188C4.313 37.906 9.469 39.5 15.094 39.5c18.093 0 27.937-14.906 27.937-27.938V10.25z"/></svg><svg viewBox="0 0 43 38" id="vimeo-v" xmlns="http://www.w3.org/2000/svg"><path d="M41.906 9.438c.282-5.438-1.781-8.25-6.093-8.344C30 .906 26.063 4.187 24 10.938c2.625-1.126 6.375-1.407 6 2.906-.188 1.406-1.125 3.562-2.906 6.281-4.875 7.781-6.094 5.156-8.719-11.813-.75-4.78-2.813-7.03-6.094-6.75-2.906.282-7.5 4.97-12.281 9.282l1.969 2.531c1.875-1.313 2.906-1.969 3.281-1.969 2.719 0 4.125 7.031 7.406 19.219 1.688 4.5 3.75 6.75 6.188 6.75 4.031 0 8.812-3.75 14.531-11.156 5.531-7.125 8.344-12.657 8.531-16.782z"/></svg><svg viewBox="0 0 52 36" id="youtube" xmlns="http://www.w3.org/2000/svg"><path d="M50.469 5.719c-.563-2.25-2.344-4.032-4.5-4.594C41.937 0 26 0 26 0S9.969 0 5.937 1.125C3.781 1.688 2 3.469 1.438 5.719.313 9.656.313 18.094.313 18.094s0 8.343 1.125 12.375c.563 2.25 2.344 3.937 4.5 4.5C9.97 36 26 36 26 36s15.938 0 19.969-1.031c2.156-.563 3.937-2.25 4.5-4.5 1.125-4.032 1.125-12.375 1.125-12.375s0-8.438-1.125-12.375zM20.75 25.687V10.5l13.313 7.594-13.313 7.593z"/></svg></svg>