<?xml version="1.0" encoding="utf-8"?><svg viewBox="0 0 52 54" xmlns="http://www.w3.org/2000/svg" xmlns:xlink="http://www.w3.org/1999/xlink"><style>:root>svg{display:none}:root>svg:target{display:block}</style><svg viewBox="0 0 27 33" id="apple" xmlns="http://www.w3.org/2000/svg"><path d="M22.36 17.414c0-2.602 1.195-4.5 3.515-5.977-1.336-1.898-3.305-2.882-5.906-3.093-2.532-.211-5.274 1.406-6.258 1.406-1.055 0-3.445-1.336-5.344-1.336-3.937.07-8.086 3.094-8.086 9.352 0 1.828.281 3.726.985 5.695.914 2.602 4.148 8.93 7.523 8.789 1.758 0 3.024-1.266 5.344-1.266 2.25 0 3.375 1.266 5.344 1.266 3.445 0 6.398-5.766 7.242-8.367-4.57-2.18-4.36-6.328-4.36-6.469zM18.421 5.883c1.898-2.25 1.687-4.36 1.687-5.133-1.687.14-3.656 1.195-4.78 2.46-1.267 1.407-1.97 3.165-1.829 5.063 1.828.141 3.516-.773 4.922-2.39z"/></svg><svg viewBox="0 0 48 47" id="facebook" xmlns="http://www.w3.org/2000/svg"><path d="M47.25 24C47.25 11.156 36.844.75 24 .75S.75 11.156.75 24c0 11.625 8.438 21.281 19.594 22.969V30.75h-5.907V24h5.907v-5.063c0-5.812 3.468-9.093 8.718-9.093 2.625 0 5.25.469 5.25.469v5.718h-2.906c-2.906 0-3.843 1.782-3.843 3.657V24h6.468L33 30.75h-5.438v16.219C38.72 45.28 47.25 35.625 47.25 24z"/></svg><svg viewBox="0 0 45 21" id="icloud" xmlns="http://www.w3.org/2000/svg"><path d="M7.805 10.57c0-.14-.14-.28-.282-.28-.21 0-.351.14-.351.28l-.352 4.57.352 4.782c0 .21.14.281.351.281.141 0 .282-.07.282-.281l.422-4.781-.422-4.57zM9.28 7.336c-.14 0-.281.14-.351.351l-.352 7.454.352 4.78c.07.212.21.352.351.352.211 0 .352-.14.352-.351l.422-4.781-.422-7.454c0-.21-.14-.351-.352-.351zm1.828-1.688c-.21 0-.351.141-.421.352l-.282 9.14.281 4.782c.07.21.211.351.422.351s.352-.14.352-.351l.351-4.781L11.462 6c0-.21-.14-.352-.352-.352zM.492 12.468c-.14 0-.14.071-.21.141L0 15.141l.281 2.46c.07.07.07.141.211.141.07 0 .14-.07.14-.14l.423-2.461-.422-2.532c0-.07-.07-.14-.14-.14zm1.617-1.546c-.07 0-.14.07-.14.14l-.492 4.079.492 3.937c0 .14.07.211.14.211.141 0 .211-.07.211-.21l.493-3.938-.493-4.079c0-.07-.07-.14-.21-.14zm1.829-.844c-.141 0-.211.14-.282.281l-.351 4.782.351 4.64c.07.07.14.211.281.211.07 0 .211-.14.211-.21l.493-4.641-.493-4.782c0-.14-.14-.28-.21-.28zm1.757-.14c-.14 0-.28.14-.28.28l-.353 4.923.352 4.78c0 .142.14.212.281.212.14 0 .282-.07.282-.211l.421-4.781-.421-4.922c0-.14-.141-.281-.282-.281zm16.946-7.805c-.07-.07-.141-.07-.282-.07-.14 0-.28.07-.351.14-.14.07-.281.281-.281.422v.07l-.211 12.446.14 2.25.07 2.25c.07.351.352.632.633.632a.63.63 0 00.633-.632l.281-4.5-.28-12.516c-.071-.21-.141-.352-.352-.492zm-1.828 1.125c-.141-.07-.211-.14-.352-.14-.07 0-.211.07-.281.14a.475.475 0 00-.282.422v.14l-.21 11.32.21 4.57v.071c0 .07.07.211.141.282.14.14.281.21.422.21.21 0 .352-.07.422-.14.14-.07.14-.211.14-.422l.07-.422.212-4.148-.211-11.461c-.07-.211-.14-.352-.282-.422zm-7.875 1.547c-.211 0-.422.21-.422.422l-.282 9.914.282 4.71c.07.212.21.422.421.422.282 0 .422-.21.422-.421l.352-4.711-.352-9.914c0-.211-.14-.422-.421-.422zm26.507 4.43a5.73 5.73 0 00-2.18.421c-.421-4.992-4.57-8.86-9.703-8.86-1.265 0-2.46.212-3.515.634-.422.14-.563.28-.563.633V19.64c0 .351.282.562.633.632h15.328a5.491 5.491 0 005.485-5.484c.07-3.094-2.461-5.555-5.485-5.555zm-20.883-4.22c-.28 0-.492.212-.562.493l-.21 9.633.21 4.64c.07.282.281.492.563.492.28 0 .562-.21.562-.492l.281-4.64-.281-9.633c-.07-.281-.281-.492-.563-.492zm-3.726-.562c-.281 0-.492.211-.492.422l-.281 10.266.28 4.71c.071.212.212.422.493.422.21 0 .422-.21.422-.421l.351-4.711-.351-10.266c0-.21-.211-.422-.422-.422zm1.828.211a.48.48 0 00-.492.492l-.211 9.985.21 4.64c.071.282.282.492.493.492a.48.48 0 00.492-.492l.282-4.64-.282-9.985a.48.48 0 00-.492-.492z"/></svg><svg viewBox="0 0 43 43" id="instagram" xmlns="http://www.w3.org/2000/svg"><path d="M22 10.219c-6 0-10.781 4.875-10.781 10.781C11.219 27 16 31.781 22 31.781 27.906 31.781 32.781 27 32.781 21c0-5.906-4.875-10.781-10.781-10.781zm0 17.812c-3.844 0-7.031-3.093-7.031-7.031 0-3.844 3.094-6.938 7.031-6.938A6.922 6.922 0 0128.938 21c0 3.938-3.094 7.031-6.938 7.031zM35.688 9.844a2.52 2.52 0 00-2.532-2.531 2.52 2.52 0 00-2.531 2.53 2.52 2.52 0 002.531 2.532 2.52 2.52 0 002.532-2.531zm7.124 2.531C42.626 9 41.876 6 39.438 3.562 37 1.126 34 .376 30.624.188 27.156 0 16.75 0 13.281.188 9.906.374 7 1.125 4.47 3.562 2.03 6 1.28 9 1.094 12.376c-.188 3.469-.188 13.875 0 17.344.187 3.375.937 6.281 3.375 8.812C7 40.97 9.906 41.72 13.28 41.906c3.469.188 13.875.188 17.344 0C34 41.72 37 40.97 39.438 38.531c2.437-2.531 3.187-5.437 3.374-8.812.188-3.469.188-13.875 0-17.344zm-4.5 21c-.656 1.875-2.156 3.281-3.937 4.031C31.562 38.531 25 38.25 22 38.25c-3.094 0-9.656.281-12.375-.844a7.108 7.108 0 01-4.031-4.031C4.469 30.656 4.75 24.094 4.75 21c0-3-.281-9.563.844-12.375.75-1.781 2.156-3.188 4.031-3.938 2.719-1.125 9.281-.843 12.375-.843 3 0 9.563-.281 12.375.844 1.781.656 3.188 2.156 3.938 3.937 1.124 2.813.843 9.375.843 12.375 0 3.094.282 9.656-.843 12.375z"/></svg><svg viewBox="0 0 51 54" id="napster" xmlns="http://www.w3.org/2000/svg"><path d="M30.188 35.063h-9.47c1.313 1.312 2.907 2.25 4.688 2.906 1.875-.657 3.469-1.594 4.782-2.907zm4.125-18.75c1.874-1.5 4.03-2.72 6.468-3.375V28.03c0 20.625-30.75 20.438-30.75.094V12.937a17.029 17.029 0 016.563 3.47 15.52 15.52 0 0117.718-.095zm-19.594-5.438c6-5.625 15.375-5.625 21.468 0-.656.281-1.312.656-1.968 1.031-5.438-2.812-12.094-2.812-17.625 0a12.012 12.012 0 00-1.875-1.031zM6.28 8.812v6.47c-5.437 3.374-5.437 11.343 0 14.812 2.532 22.968 35.813 22.593 38.25.187v-.187c5.532-3.375 5.532-11.438.094-14.813V8.812c-1.688 0-3.188.282-4.781.657-7.688-8.531-21.094-8.531-28.782 0-1.5-.375-3.093-.656-4.78-.656zM26.531 33s3.375 0 5.719-.094c.938-.093 1.969-.375 2.438-.656 2.437-1.406 2.343-3.656 2.437-4.406-7.5-.094-9.375-.375-10.594 5.156zm-12.75-5.156c.094.75 0 3 2.438 4.5.468.187 1.5.562 2.437.562 2.344.094 5.719.188 5.719.188-1.219-5.625-3.094-5.344-10.594-5.25zm15.844 11.625c-.281-.563-.656-.75-.656-.75-2.25.75-4.875.656-7.032 0 0 0-.28.187-.656.656a2.367 2.367 0 00-.375.844c2.813 1.687 6.375 1.687 9.094 0 0 0-.094-.375-.375-.75z"/></svg><svg viewBox="0 0 35 35" id="spotify" xmlns="http://www.w3.org/2000/svg"><path d="M17.438.063C7.805.063 0 7.938 0 17.5c0 9.633 7.805 17.438 17.438 17.438 9.562 0 17.437-7.805 17.437-17.438C34.875 7.937 27 .062 17.437.062zm7.03 25.664c-.28 0-.491-.07-.702-.211-4.43-2.672-9.493-2.743-14.555-1.758-.281.07-.633.21-.844.21-.703 0-1.125-.562-1.125-1.124 0-.703.422-1.055.985-1.196 5.765-1.265 11.601-1.125 16.664 1.829.422.28.632.562.632 1.195s-.492 1.055-1.054 1.055zm1.9-4.57c-.352 0-.634-.212-.845-.282-4.43-2.602-10.968-3.656-16.804-2.11-.352.07-.492.212-.844.212-.703 0-1.336-.633-1.336-1.407 0-.703.352-1.195 1.055-1.406 1.968-.562 4.008-.984 6.89-.984 4.57 0 9 1.125 12.446 3.234.562.281.843.773.843 1.336-.07.773-.632 1.406-1.406 1.406zm2.179-5.345c-.352 0-.563-.14-.914-.28-4.992-3.024-13.922-3.727-19.758-2.11-.21.07-.563.21-.914.21-.914 0-1.617-.773-1.617-1.687 0-.984.633-1.476 1.265-1.687 2.461-.703 5.204-1.055 8.227-1.055 5.133 0 10.547 1.055 14.414 3.375.563.281.914.703.914 1.547 0 .984-.773 1.688-1.617 1.688z"/></svg><svg viewBox="0 0 48 40" id="twitter" xmlns="http://www.w3.org/2000/svg"><path d="M43.031 10.25c1.875-1.406 3.563-3.094 4.875-5.063-1.687.75-3.656 1.313-5.625 1.5 2.063-1.218 3.563-3.093 4.313-5.437a20.79 20.79 0 01-6.188 2.438A9.844 9.844 0 0033.188.594a9.842 9.842 0 00-9.844 9.844c0 .75.093 1.5.281 2.25-8.156-.47-15.469-4.407-20.344-10.313C2.437 3.781 1.97 5.469 1.97 7.344A9.685 9.685 0 006.375 15.5c-1.594-.094-3.188-.469-4.5-1.219v.094c0 4.781 3.375 8.719 7.875 9.656-.75.188-1.688.375-2.531.375-.657 0-1.219-.093-1.875-.187 1.218 3.937 4.875 6.75 9.187 6.843-3.375 2.625-7.594 4.22-12.187 4.22-.844 0-1.594-.094-2.344-.188C4.313 37.906 9.469 39.5 15.094 39.5c18.093 0 27.937-14.906 27.937-27.938V10.25z"/></svg><svg viewBox="0 0 43 38" id="vimeo-v" xmlns="http://www.w3.org/2000/svg"><path d="M41.906 9.438c.282-5.438-1.781-8.25-6.093-8.344C30 .906 26.063 4.187 24 10.938c2.625-1.126 6.375-1.407 6 2.906-.188 1.406-1.125 3.562-2.906 6.281-4.875 7.781-6.094 5.156-8.719-11.813-.75-4.78-2.813-7.03-6.094-6.75-2.906.282-7.5 4.97-12.281 9.282l1.969 2.531c1.875-1.313 2.906-1.969 3.281-1.969 2.719 0 4.125 7.031 7.406 19.219 1.688 4.5 3.75 6.75 6.188 6.75 4.031 0 8.812-3.75 14.531-11.156 5.531-7.125 8.344-12.657 8.531-16.782z"/></svg><svg viewBox="0 0 52 36" id="youtube" xmlns="http://www.w3.org/2000/svg"><path d="M50.469 5.719c-.563-2.25-2.344-4.032-4.5-4.594C41.937 0 26 0 26 0S9.969 0 5.937 1.125C3.781 1.688 2 3.469 1.438 5.719.313 9.656.313 18.094.313 18.094s0 8.343 1.125 12.375c.563 2.25 2.344 3.937 4.5 4.5C9.97 36 26 36 26 36s15.938 0 19.969-1.031c2.156-.563 3.937-2.25 4.5-4.5 1.125-4.032 1.125-12.375 1.125-12.375s0-8.438-1.125-12.375zM20.75 25.687V10.5l13.313 7.594-13.313 7.593z"/></svg></svg>