<?xml version="1.0" encoding="utf-8"?><svg viewBox="0 0 45 35" xmlns="http://www.w3.org/2000/svg" xmlns:xlink="http://www.w3.org/1999/xlink"><style>:root>svg{display:none}:root>svg:target{display:block}</style><svg viewBox="0 0 27 33" id="apple" xmlns="http://www.w3.org/2000/svg"><path d="M22.36 17.414c0-2.602 1.195-4.5 3.515-5.977-1.336-1.898-3.305-2.882-5.906-3.093-2.532-.211-5.274 1.406-6.258 1.406-1.055 0-3.445-1.336-5.344-1.336-3.937.07-8.086 3.094-8.086 9.352 0 1.828.281 3.726.985 5.695.914 2.602 4.148 8.93 7.523 8.789 1.758 0 3.024-1.266 5.344-1.266 2.25 0 3.375 1.266 5.344 1.266 3.445 0 6.398-5.766 7.242-8.367-4.57-2.18-4.36-6.328-4.36-6.469zM18.421 5.883c1.898-2.25 1.687-4.36 1.687-5.133-1.687.14-3.656 1.195-4.78 2.46-1.267 1.407-1.97 3.165-1.829 5.063 1.828.141 3.516-.773 4.922-2.39z"/></svg><svg viewBox="0 0 45 21" id="icloud" xmlns="http://www.w3.org/2000/svg"><path d="M7.805 10.57c0-.14-.14-.28-.282-.28-.21 0-.351.14-.351.28l-.352 4.57.352 4.782c0 .21.14.281.351.281.141 0 .282-.07.282-.281l.422-4.781-.422-4.57zM9.28 7.336c-.14 0-.281.14-.351.351l-.352 7.454.352 4.78c.07.212.21.352.351.352.211 0 .352-.14.352-.351l.422-4.781-.422-7.454c0-.21-.14-.351-.352-.351zm1.828-1.688c-.21 0-.351.141-.421.352l-.282 9.14.281 4.782c.07.21.211.351.422.351s.352-.14.352-.351l.351-4.781L11.462 6c0-.21-.14-.352-.352-.352zM.492 12.468c-.14 0-.14.071-.21.141L0 15.141l.281 2.46c.07.07.07.141.211.141.07 0 .14-.07.14-.14l.423-2.461-.422-2.532c0-.07-.07-.14-.14-.14zm1.617-1.546c-.07 0-.14.07-.14.14l-.492 4.079.492 3.937c0 .14.07.211.14.211.141 0 .211-.07.211-.21l.493-3.938-.493-4.079c0-.07-.07-.14-.21-.14zm1.829-.844c-.141 0-.211.14-.282.281l-.351 4.782.351 4.64c.07.07.14.211.281.211.07 0 .211-.14.211-.21l.493-4.641-.493-4.782c0-.14-.14-.28-.21-.28zm1.757-.14c-.14 0-.28.14-.28.28l-.353 4.923.352 4.78c0 .142.14.212.281.212.14 0 .282-.07.282-.211l.421-4.781-.421-4.922c0-.14-.141-.281-.282-.281zm16.946-7.805c-.07-.07-.141-.07-.282-.07-.14 0-.28.07-.351.14-.14.07-.281.281-.281.422v.07l-.211 12.446.14 2.25.07 2.25c.07.351.352.632.633.632a.63.63 0 00.633-.632l.281-4.5-.28-12.516c-.071-.21-.141-.352-.352-.492zm-1.828 1.125c-.141-.07-.211-.14-.352-.14-.07 0-.211.07-.281.14a.475.475 0 00-.282.422v.14l-.21 11.32.21 4.57v.071c0 .07.07.211.141.282.14.14.281.21.422.21.21 0 .352-.07.422-.14.14-.07.14-.211.14-.422l.07-.422.212-4.148-.211-11.461c-.07-.211-.14-.352-.282-.422zm-7.875 1.547c-.211 0-.422.21-.422.422l-.282 9.914.282 4.71c.07.212.21.422.421.422.282 0 .422-.21.422-.421l.352-4.711-.352-9.914c0-.211-.14-.422-.421-.422zm26.507 4.43a5.73 5.73 0 00-2.18.421c-.421-4.992-4.57-8.86-9.703-8.86-1.265 0-2.46.212-3.515.634-.422.14-.563.28-.563.633V19.64c0 .351.282.562.633.632h15.328a5.491 5.491 0 005.485-5.484c.07-3.094-2.461-5.555-5.485-5.555zm-20.883-4.22c-.28 0-.492.212-.562.493l-.21 9.633.21 4.64c.07.282.281.492.563.492.28 0 .562-.21.562-.492l.281-4.64-.281-9.633c-.07-.281-.281-.492-.563-.492zm-3.726-.562c-.281 0-.492.211-.492.422l-.281 10.266.28 4.71c.071.212.212.422.493.422.21 0 .422-.21.422-.421l.351-4.711-.351-10.266c0-.21-.211-.422-.422-.422zm1.828.211a.48.48 0 00-.492.492l-.211 9.985.21 4.64c.071.282.282.492.493.492a.48.48 0 00.492-.492l.282-4.64-.282-9.985a.48.48 0 00-.492-.492z"/></svg><svg viewBox="0 0 35 35" id="spotify" xmlns="http://www.w3.org/2000/svg"><path d="M17.438.063C7.805.063 0 7.938 0 17.5c0 9.633 7.805 17.438 17.438 17.438 9.562 0 17.437-7.805 17.437-17.438C34.875 7.937 27 .062 17.437.062zm7.03 25.664c-.28 0-.491-.07-.702-.211-4.43-2.672-9.493-2.743-14.555-1.758-.281.07-.633.21-.844.21-.703 0-1.125-.562-1.125-1.124 0-.703.422-1.055.985-1.196 5.765-1.265 11.601-1.125 16.664 1.829.422.28.632.562.632 1.195s-.492 1.055-1.054 1.055zm1.9-4.57c-.352 0-.634-.212-.845-.282-4.43-2.602-10.968-3.656-16.804-2.11-.352.07-.492.212-.844.212-.703 0-1.336-.633-1.336-1.407 0-.703.352-1.195 1.055-1.406 1.968-.562 4.008-.984 6.89-.984 4.57 0 9 1.125 12.446 3.234.562.281.843.773.843 1.336-.07.773-.632 1.406-1.406 1.406zm2.179-5.345c-.352 0-.563-.14-.914-.28-4.992-3.024-13.922-3.727-19.758-2.11-.21.07-.563.21-.914.21-.914 0-1.617-.773-1.617-1.687 0-.984.633-1.476 1.265-1.687 2.461-.703 5.204-1.055 8.227-1.055 5.133 0 10.547 1.055 14.414 3.375.563.281.914.703.914 1.547 0 .984-.773 1.688-1.617 1.688z"/></svg></svg>