<svg width="25" height="24" fill="none" xmlns="http://www.w3.org/2000/svg"><path d="M24.5 21.75V9.422c0-.703-.375-1.36-.89-1.781C22.437 6.75 21.5 6 15.921 1.969 15.125 1.406 13.578 0 12.5.047 11.375 0 9.828 1.407 9.031 1.969 3.453 6 2.516 6.75 1.344 7.64A2.318 2.318 0 00.5 9.42v12.33A2.22 2.22 0 002.75 24h19.5a2.25 2.25 0 002.25-2.25zm-3.094-9.188l.422.61c.047.047.047.14.047.234s-.047.235-.14.281c-1.079.797-2.579 1.922-4.922 3.61-.985.703-2.672 2.25-4.313 2.203-1.688.047-3.375-1.5-4.36-2.203-2.343-1.688-3.843-2.813-4.921-3.61-.094-.046-.14-.187-.14-.28 0-.095 0-.188.046-.235l.422-.61c.14-.187.375-.234.562-.093 1.032.797 2.579 1.922 4.922 3.61.797.562 2.344 1.968 3.469 1.921 1.078.047 2.625-1.36 3.422-1.922 2.344-1.687 3.89-2.812 4.922-3.61.187-.14.422-.093.562.095z" fill="#fff"/></svg>