<svg width="21" height="24" viewBox="0 0 21 24" fill="none" xmlns="http://www.w3.org/2000/svg">
<path d="M0 21.75C0 23.0156 0.984375 24 2.25 24H18.75C19.9688 24 21 23.0156 21 21.75V9H0V21.75ZM15 12.5625C15 12.2812 15.2344 12 15.5625 12H17.4375C17.7188 12 18 12.2812 18 12.5625V14.4375C18 14.7656 17.7188 15 17.4375 15H15.5625C15.2344 15 15 14.7656 15 14.4375V12.5625ZM15 18.5625C15 18.2812 15.2344 18 15.5625 18H17.4375C17.7188 18 18 18.2812 18 18.5625V20.4375C18 20.7656 17.7188 21 17.4375 21H15.5625C15.2344 21 15 20.7656 15 20.4375V18.5625ZM9 12.5625C9 12.2812 9.23438 12 9.5625 12H11.4375C11.7188 12 12 12.2812 12 12.5625V14.4375C12 14.7656 11.7188 15 11.4375 15H9.5625C9.23438 15 9 14.7656 9 14.4375V12.5625ZM9 18.5625C9 18.2812 9.23438 18 9.5625 18H11.4375C11.7188 18 12 18.2812 12 18.5625V20.4375C12 20.7656 11.7188 21 11.4375 21H9.5625C9.23438 21 9 20.7656 9 20.4375V18.5625ZM3 12.5625C3 12.2812 3.23438 12 3.5625 12H5.4375C5.71875 12 6 12.2812 6 12.5625V14.4375C6 14.7656 5.71875 15 5.4375 15H3.5625C3.23438 15 3 14.7656 3 14.4375V12.5625ZM3 18.5625C3 18.2812 3.23438 18 3.5625 18H5.4375C5.71875 18 6 18.2812 6 18.5625V20.4375C6 20.7656 5.71875 21 5.4375 21H3.5625C3.23438 21 3 20.7656 3 20.4375V18.5625ZM18.75 3H16.5V0.75C16.5 0.375 16.125 0 15.75 0H14.25C13.8281 0 13.5 0.375 13.5 0.75V3H7.5V0.75C7.5 0.375 7.125 0 6.75 0H5.25C4.82812 0 4.5 0.375 4.5 0.75V3H2.25C0.984375 3 0 4.03125 0 5.25V7.5H21V5.25C21 4.03125 19.9688 3 18.75 3Z" fill="#D71362"/>
</svg>
