<svg width="25" height="24" viewBox="0 0 25 24" fill="none" xmlns="http://www.w3.org/2000/svg">
<path d="M12.5 0.375C6.07812 0.375 0.875 5.57812 0.875 12C0.875 18.4219 6.07812 23.625 12.5 23.625C18.9219 23.625 24.125 18.4219 24.125 12C24.125 5.57812 18.9219 0.375 12.5 0.375ZM16.8125 15.0469L15.875 16.2188C15.7344 16.4062 15.5469 16.5469 15.2656 16.5469C15.125 16.5469 14.9375 16.4531 14.8438 16.3594L11.7031 14.0156C11.2344 13.6875 11 13.1719 11 12.5625V5.25C11 4.875 11.3281 4.5 11.75 4.5H13.25C13.625 4.5 14 4.875 14 5.25V12L16.7188 14.0156C16.8594 14.1562 17 14.3438 17 14.5781C17 14.7656 16.9062 14.9531 16.8125 15.0469Z" fill="#D71362"/>
</svg>
