<svg width="27" height="25" viewBox="0 0 27 25" fill="none" xmlns="http://www.w3.org/2000/svg">
<path d="M13.5 0C10.2188 0 7.59375 2.67188 7.59375 5.90625C7.59375 8.57812 11.4375 13.3594 12.8906 15.1406C13.2188 15.4688 13.7344 15.4688 14.0625 15.1406C15.5156 13.3594 19.4062 8.57812 19.4062 5.90625C19.4062 2.67188 16.7344 0 13.5 0ZM13.5 7.875C12.375 7.875 11.5312 7.03125 11.5312 5.90625C11.5312 4.82812 12.375 3.9375 13.5 3.9375C14.5781 3.9375 15.4688 4.82812 15.4688 5.90625C15.4688 7.03125 14.5781 7.875 13.5 7.875ZM0.9375 10.125C0.375 10.3594 0 10.9219 0 11.5312V23.25C0 23.8125 0.515625 24.1875 0.984375 23.9531L7.5 21V10.0781C7.07812 9.32812 6.70312 8.625 6.46875 7.92188L0.9375 10.125ZM13.5 16.875C12.7969 16.875 12.1875 16.5938 11.7656 16.0781C10.8281 15 9.84375 13.7812 9 12.4688V21L18 24V12.4688C17.1094 13.7812 16.125 15 15.1875 16.0781C14.7656 16.5938 14.1562 16.875 13.5 16.875ZM25.9688 7.59375L19.5 10.5V24L26.0156 21.4219C26.5781 21.1875 27 20.625 27 20.0156V8.29688C27 7.73438 26.4375 7.35938 25.9688 7.59375Z" fill="#D71362"/>
</svg>
