<svg width="51" height="54" viewBox="0 0 51 54" xmlns="http://www.w3.org/2000/svg">
<path d="M30.1875 35.0625H20.7188C22.0312 36.375 23.625 37.3125 25.4062 37.9688C27.2812 37.3125 28.875 36.375 30.1875 35.0625ZM34.3125 16.3125C36.1875 14.8125 38.3438 13.5938 40.7812 12.9375V28.0312C40.7812 48.6562 10.0312 48.4688 10.0312 28.125V12.9375C12.4688 13.5938 14.7188 14.8125 16.5938 16.4062C21.9375 12.6562 28.9688 12.6562 34.3125 16.3125ZM14.7188 10.875C20.7188 5.25 30.0938 5.25 36.1875 10.875C35.5312 11.1562 34.875 11.5312 34.2188 11.9062C28.7812 9.09375 22.125 9.09375 16.5938 11.9062C16.0312 11.5312 15.375 11.1562 14.7188 10.875ZM6.28125 8.8125V15.2812C0.84375 18.6562 0.84375 26.625 6.28125 30.0938C8.8125 53.0625 42.0938 52.6875 44.5312 30.2812V30.0938C50.0625 26.7188 50.0625 18.6562 44.625 15.2812V8.8125C42.9375 8.8125 41.4375 9.09375 39.8438 9.46875C32.1562 0.9375 18.75 0.9375 11.0625 9.46875C9.5625 9.09375 7.96875 8.8125 6.28125 8.8125ZM26.5312 33C26.5312 33 29.9062 33 32.25 32.9062C33.1875 32.8125 34.2188 32.5312 34.6875 32.25C37.125 30.8438 37.0312 28.5938 37.125 27.8438C29.625 27.75 27.75 27.4688 26.5312 33ZM13.7812 27.8438C13.875 28.5938 13.7812 30.8438 16.2188 32.3438C16.6875 32.5312 17.7188 32.9062 18.6562 32.9062C21 33 24.375 33.0938 24.375 33.0938C23.1562 27.4688 21.2812 27.75 13.7812 27.8438ZM29.625 39.4688C29.3438 38.9062 28.9688 38.7188 28.9688 38.7188C26.7188 39.4688 24.0938 39.375 21.9375 38.7188C21.9375 38.7188 21.6562 38.9062 21.2812 39.375C21 39.75 20.9062 40.2188 20.9062 40.2188C23.7188 41.9062 27.2812 41.9062 30 40.2188C30 40.2188 29.9062 39.8438 29.625 39.4688Z"/>
</svg>
