<svg width="25" height="24" viewBox="0 0 25 24" fill="none" xmlns="http://www.w3.org/2000/svg">
<path d="M12.5 0.375C6.07812 0.375 0.875 5.57812 0.875 12C0.875 18.4219 6.07812 23.625 12.5 23.625C18.9219 23.625 24.125 18.4219 24.125 12C24.125 5.57812 18.9219 0.375 12.5 0.375ZM21.875 12C21.875 13.0781 21.6875 14.1094 21.3594 15.0469H20.375C20.1875 15.0469 20 14.9531 19.8594 14.8125L18.3594 13.2656C18.1719 13.0781 18.1719 12.7031 18.3594 12.5156L18.9688 11.9062V11.5312C18.9688 11.3906 18.875 11.25 18.7812 11.1562L18.3594 10.6875C18.2656 10.5938 18.125 10.5469 17.9844 10.5469H17.2344C16.9531 10.5469 16.7188 10.3125 16.7188 10.0312C16.7188 9.89062 16.7656 9.75 16.8594 9.65625L17.2812 9.1875C17.375 9.09375 17.5156 9.04688 17.6562 9.04688H19.1562C19.4844 9.04688 19.7188 8.8125 19.7188 8.53125V8.0625C19.7188 7.78125 19.4844 7.54688 19.1562 7.54688H17.4688C17.0469 7.54688 16.7188 7.875 16.7188 8.29688V8.48438C16.7188 8.8125 16.4844 9.09375 16.2031 9.23438L14.7031 9.70312C14.5625 9.75 14.4688 9.89062 14.4688 10.0781V10.1719C14.4688 10.3594 14.2812 10.5469 14.0938 10.5469H13.3438C13.1094 10.5469 12.9688 10.3594 12.9688 10.1719C12.9688 9.9375 12.7812 9.79688 12.5938 9.79688H12.4531C12.3125 9.79688 12.1719 9.89062 12.0781 9.98438L11.6562 10.875C11.5156 11.1094 11.2812 11.2969 11 11.2969H9.96875C9.54688 11.2969 9.21875 10.9688 9.21875 10.5469V9.32812C9.21875 9.14062 9.26562 8.95312 9.40625 8.8125L10.3438 7.875C10.5781 7.64062 10.7188 7.35938 10.7188 7.07812C10.7188 6.89062 10.8125 6.75 10.9531 6.70312L12.8281 6.09375C12.9219 6.04688 12.9688 6 13.0156 5.95312L14.2812 4.6875C14.375 4.59375 14.4688 4.45312 14.4688 4.3125C14.4688 4.03125 14.1875 3.79688 13.9062 3.79688H12.9688L12.2188 4.54688V4.92188C12.2188 5.10938 12.0312 5.29688 11.8438 5.29688H11.0938C10.8594 5.29688 10.7188 5.10938 10.7188 4.92188V3.98438C10.7188 3.84375 10.7656 3.75 10.8594 3.65625L12.2188 2.67188C12.3125 2.67188 12.3594 2.625 12.4531 2.625C17.6562 2.625 21.875 6.84375 21.875 12ZM6.96875 7.03125C6.96875 6.89062 7.01562 6.75 7.10938 6.65625L8.28125 5.4375C8.375 5.34375 8.51562 5.29688 8.65625 5.29688C8.98438 5.29688 9.21875 5.53125 9.21875 5.8125V6.5625C9.21875 6.70312 9.125 6.84375 9.03125 6.9375L8.60938 7.40625C8.51562 7.5 8.375 7.54688 8.23438 7.54688H7.48438C7.20312 7.54688 6.96875 7.3125 6.96875 7.03125ZM12.9688 21.375V21.0469C12.9688 20.625 12.5938 20.2969 12.2188 20.2969H11.2344C10.7656 20.2969 10.0156 20.0625 9.59375 19.7344L8.5625 18.9375C8 18.5625 7.71875 17.9062 7.71875 17.25V16.125C7.71875 15.375 8.09375 14.6719 8.75 14.2969L10.7656 13.0781C11.0938 12.8906 11.4688 12.7969 11.8438 12.7969H13.2969C13.8125 12.7969 14.3281 12.9844 14.7031 13.3125L16.7188 15.0469H17.5625C17.9844 15.0469 18.3594 15.1875 18.6406 15.4688L19.4375 16.3125C19.625 16.4531 19.8125 16.5469 20.0469 16.5469H20.7031C19.1562 19.3125 16.2969 21.1875 12.9688 21.375Z" fill="#D71362"/>
</svg>
