<svg width="26" height="25" viewBox="0 0 26 25" xmlns="http://www.w3.org/2000/svg">
<path d="M13 6.21094C9.5 6.21094 6.71094 9.05469 6.71094 12.5C6.71094 16 9.5 18.7891 13 18.7891C16.4453 18.7891 19.2891 16 19.2891 12.5C19.2891 9.05469 16.4453 6.21094 13 6.21094ZM13 16.6016C10.7578 16.6016 8.89844 14.7969 8.89844 12.5C8.89844 10.2578 10.7031 8.45312 13 8.45312C15.2422 8.45312 17.0469 10.2578 17.0469 12.5C17.0469 14.7969 15.2422 16.6016 13 16.6016ZM20.9844 5.99219C20.9844 5.17188 20.3281 4.51562 19.5078 4.51562C18.6875 4.51562 18.0312 5.17188 18.0312 5.99219C18.0312 6.8125 18.6875 7.46875 19.5078 7.46875C20.3281 7.46875 20.9844 6.8125 20.9844 5.99219ZM25.1406 7.46875C25.0312 5.5 24.5938 3.75 23.1719 2.32812C21.75 0.90625 20 0.46875 18.0312 0.359375C16.0078 0.25 9.9375 0.25 7.91406 0.359375C5.94531 0.46875 4.25 0.90625 2.77344 2.32812C1.35156 3.75 0.914062 5.5 0.804688 7.46875C0.695312 9.49219 0.695312 15.5625 0.804688 17.5859C0.914062 19.5547 1.35156 21.25 2.77344 22.7266C4.25 24.1484 5.94531 24.5859 7.91406 24.6953C9.9375 24.8047 16.0078 24.8047 18.0312 24.6953C20 24.5859 21.75 24.1484 23.1719 22.7266C24.5938 21.25 25.0312 19.5547 25.1406 17.5859C25.25 15.5625 25.25 9.49219 25.1406 7.46875ZM22.5156 19.7188C22.1328 20.8125 21.2578 21.6328 20.2188 22.0703C18.5781 22.7266 14.75 22.5625 13 22.5625C11.1953 22.5625 7.36719 22.7266 5.78125 22.0703C4.6875 21.6328 3.86719 20.8125 3.42969 19.7188C2.77344 18.1328 2.9375 14.3047 2.9375 12.5C2.9375 10.75 2.77344 6.92188 3.42969 5.28125C3.86719 4.24219 4.6875 3.42188 5.78125 2.98438C7.36719 2.32812 11.1953 2.49219 13 2.49219C14.75 2.49219 18.5781 2.32812 20.2188 2.98438C21.2578 3.36719 22.0781 4.24219 22.5156 5.28125C23.1719 6.92188 23.0078 10.75 23.0078 12.5C23.0078 14.3047 23.1719 18.1328 22.5156 19.7188Z"/>
</svg>
