<svg width="25" height="25" viewBox="0 0 25 25" xmlns="http://www.w3.org/2000/svg">
<path d="M21.0312 3.85938C18.7891 1.5625 15.7266 0.25 12.4453 0.25C5.77344 0.25 0.304688 5.71875 0.304688 12.3906C0.304688 14.5781 0.90625 16.6562 1.94531 18.4609L0.25 24.75L6.64844 23.1094C8.45312 24.0391 10.4219 24.5859 12.4453 24.5859C19.1719 24.5859 24.75 19.1172 24.75 12.4453C24.75 9.16406 23.3281 6.15625 21.0312 3.85938ZM12.4453 22.5078C10.6406 22.5078 8.89062 22.0156 7.30469 21.0859L6.97656 20.8672L3.14844 21.9062L4.1875 18.1875L3.91406 17.8047C2.92969 16.1641 2.38281 14.3047 2.38281 12.3906C2.38281 6.86719 6.92188 2.32812 12.5 2.32812C15.1797 2.32812 17.6953 3.36719 19.6094 5.28125C21.5234 7.19531 22.6719 9.71094 22.6719 12.4453C22.6719 17.9688 18.0234 22.5078 12.4453 22.5078ZM18.0234 14.9609C17.6953 14.7969 16.2188 14.0859 15.9453 13.9766C15.6719 13.8672 15.4531 13.8125 15.2344 14.1406C15.0703 14.4141 14.4688 15.125 14.3047 15.3438C14.0859 15.5078 13.9219 15.5625 13.6484 15.3984C11.8438 14.5234 10.6953 13.8125 9.49219 11.7891C9.16406 11.2422 9.82031 11.2969 10.3672 10.1484C10.4766 9.92969 10.4219 9.76562 10.3672 9.60156C10.3125 9.4375 9.65625 7.96094 9.4375 7.35938C9.16406 6.75781 8.94531 6.8125 8.72656 6.8125C8.5625 6.8125 8.34375 6.8125 8.17969 6.8125C7.96094 6.8125 7.63281 6.86719 7.35938 7.19531C7.08594 7.52344 6.32031 8.23438 6.32031 9.71094C6.32031 11.2422 7.35938 12.6641 7.52344 12.8828C7.6875 13.0469 9.65625 16.1094 12.7188 17.4219C14.6328 18.2969 15.3984 18.3516 16.3828 18.1875C16.9297 18.1328 18.1328 17.4766 18.4062 16.7656C18.6797 16.0547 18.6797 15.4531 18.5703 15.3438C18.5156 15.1797 18.2969 15.125 18.0234 14.9609Z"/>
</svg>
