<svg width="29" height="23" viewBox="0 0 29 23" xmlns="http://www.w3.org/2000/svg">
<path d="M25.6016 5.8125C26.6953 4.99219 27.6797 4.00781 28.4453 2.85938C27.4609 3.29688 26.3125 3.625 25.1641 3.73438C26.3672 3.02344 27.2422 1.92969 27.6797 0.5625C26.5859 1.21875 25.3281 1.71094 24.0703 1.98438C22.9766 0.835938 21.5 0.179688 19.8594 0.179688C16.6875 0.179688 14.1172 2.75 14.1172 5.92188C14.1172 6.35938 14.1719 6.79688 14.2812 7.23438C9.52344 6.96094 5.25781 4.66406 2.41406 1.21875C1.92188 2.03906 1.64844 3.02344 1.64844 4.11719C1.64844 6.08594 2.63281 7.83594 4.21875 8.875C3.28906 8.82031 2.35938 8.60156 1.59375 8.16406V8.21875C1.59375 11.0078 3.5625 13.3047 6.1875 13.8516C5.75 13.9609 5.20312 14.0703 4.71094 14.0703C4.32812 14.0703 4 14.0156 3.61719 13.9609C4.32812 16.2578 6.46094 17.8984 8.97656 17.9531C7.00781 19.4844 4.54688 20.4141 1.86719 20.4141C1.375 20.4141 0.9375 20.3594 0.5 20.3047C3.01562 21.9453 6.02344 22.875 9.30469 22.875C19.8594 22.875 25.6016 14.1797 25.6016 6.57812C25.6016 6.30469 25.6016 6.08594 25.6016 5.8125Z"/>
</svg>
