<svg width="43" height="38" viewBox="0 0 43 38" xmlns="http://www.w3.org/2000/svg">
<path d="M41.9062 9.4375C42.1875 4 40.125 1.1875 35.8125 1.09375C30 0.90625 26.0625 4.1875 24 10.9375C26.625 9.8125 30.375 9.53125 30 13.8438C29.8125 15.25 28.875 17.4062 27.0938 20.125C22.2188 27.9062 21 25.2812 18.375 8.3125C17.625 3.53125 15.5625 1.28125 12.2812 1.5625C9.375 1.84375 4.78125 6.53125 0 10.8438L1.96875 13.375C3.84375 12.0625 4.875 11.4062 5.25 11.4062C7.96875 11.4062 9.375 18.4375 12.6562 30.625C14.3438 35.125 16.4062 37.375 18.8438 37.375C22.875 37.375 27.6562 33.625 33.375 26.2188C38.9062 19.0938 41.7188 13.5625 41.9062 9.4375Z"/>
</svg>
