<svg width="21" height="24" fill="none" xmlns="http://www.w3.org/2000/svg"><path d="M3 10.5h.61A7.482 7.482 0 0010.5 15c3.047 0 5.672-1.828 6.844-4.5H18c.375 0 .75-.328.75-.75v-4.5c0-.375-.375-.75-.75-.75h-.656C16.172 1.875 13.547 0 10.5 0 7.406 0 4.781 1.875 3.61 4.5H3c-.422 0-.75.375-.75.75v4.5c0 .422.328.75.75.75zm1.875-4.125c0-1.031.984-1.875 2.25-1.875h6.75c1.219 0 2.25.844 2.25 1.875V7.5c0 2.484-2.016 4.5-4.5 4.5h-2.25a4.501 4.501 0 01-4.5-4.5V6.375zM8.25 9.75l.563-1.688L10.5 7.5l-1.688-.563L8.25 5.25l-.563 1.688L6 7.5l1.688.563.562 1.687zm7.078 5.344A8.959 8.959 0 0110.5 16.5a9 9 0 01-4.875-1.406C2.437 15.422 0 18.047 0 21.328v.422A2.22 2.22 0 002.25 24H6v-3c0-.797.656-1.5 1.5-1.5h6c.797 0 1.5.703 1.5 1.5v3h3.75A2.25 2.25 0 0021 21.75v-.422c0-3.281-2.484-5.906-5.672-6.234zM12.75 21c-.422 0-.75.375-.75.75 0 .422.328.75.75.75.375 0 .75-.328.75-.75 0-.375-.375-.75-.75-.75zm-4.5 0c-.422 0-.75.375-.75.75V24H9v-2.25c0-.375-.375-.75-.75-.75z" fill="#D71362"/></svg>